<svg data-logo="logo" xmlns="http://www.w3.org/2000/svg" viewBox="0 0 261 43">
        <g style="opacity: 1;" id="logogram" transform="translate(0, 1.5) rotate(0)"><path fill-rule="evenodd" clip-rule="evenodd" d="M23.3333 0C23.7194 0 24.1033 0.00932962 24.4847 0.0280265C24.4924 0.0284028 24.4989 0.0222809 24.4989 0.0145938V0.0145938C24.4989 0.00716838 24.5049 0.0011489 24.5123 0.0011489H45.8418C46.2974 0.00137965 46.6667 0.373466 46.6667 0.83295C46.6666 1.05356 46.5798 1.26515 46.4251 1.42119L40.8322 7.05882H52.7444C53.5415 7.05882 54.27 7.52957 54.5456 8.27757C55.4857 10.829 56 13.5892 56 16.4706C56 29.4655 45.5533 40 32.6667 40C32.2808 40 31.8971 39.9896 31.5158 39.9709C31.5078 39.9705 31.5011 39.9768 31.5011 39.9848V39.9848C31.5011 39.9926 31.4949 39.9989 31.4871 39.9989H10.1582C9.7026 39.9986 9.33333 39.6265 9.33333 39.1671C9.33336 38.9464 9.42022 38.7348 9.57487 38.5788L15.1655 32.9412H3.25562C2.45846 32.9412 1.73002 32.4704 1.4544 31.7224C0.514256 29.171 0 26.4109 0 23.5294C0 10.5345 10.4467 0 23.3333 0ZM31.3177 16.6556C29.3919 14.383 26.5301 12.9412 23.3333 12.9412C17.5343 12.9412 12.8333 17.6817 12.8333 23.5294C12.8333 24.7672 13.0456 25.9547 13.4326 27.0588H20.9989L24.6823 23.3444C26.6081 25.617 29.4699 27.0588 32.6667 27.0588C38.4657 27.0588 43.1667 22.3183 43.1667 16.4706C43.1667 15.2328 42.9544 14.0453 42.5674 12.9412H35.0011L31.3177 16.6556Z" fill="#3754FA"></path></g>
        <g style="opacity: 1;" id="logotype" transform="translate(62, 1)"><path fill="#000000" d="M19.43 34.34L19.43 34.34Q16.05 34.34 13.37 32.80Q10.70 31.27 9.15 28.34Q7.61 25.42 7.61 21.29L7.61 21.29Q7.61 17.13 9.16 14.20Q10.72 11.27 13.40 9.73Q16.08 8.19 19.43 8.19L19.43 8.19Q21.60 8.19 23.47 8.80Q25.35 9.41 26.80 10.57Q28.25 11.73 29.17 13.42Q30.10 15.10 30.39 17.23L30.39 17.23L25.11 17.23Q24.94 16.19 24.45 15.38Q23.96 14.57 23.24 14.00Q22.51 13.42 21.57 13.12Q20.63 12.83 19.54 12.83L19.54 12.83Q17.55 12.83 16.05 13.82Q14.54 14.81 13.72 16.70Q12.90 18.58 12.90 21.29L12.90 21.29Q12.90 24.04 13.74 25.92Q14.58 27.80 16.07 28.75Q17.55 29.71 19.52 29.71L19.52 29.71Q20.61 29.71 21.54 29.41Q22.47 29.11 23.22 28.54Q23.96 27.97 24.45 27.15Q24.94 26.33 25.12 25.30L25.12 25.30L30.40 25.30Q30.20 27.06 29.35 28.69Q28.51 30.31 27.11 31.59Q25.70 32.87 23.77 33.61Q21.84 34.34 19.43 34.34ZM37.14 34.38L37.14 34.38Q35.32 34.38 33.88 33.74Q32.44 33.09 31.61 31.82Q30.78 30.55 30.78 28.65L30.78 28.65Q30.78 27.06 31.37 25.98Q31.96 24.91 32.97 24.26Q33.99 23.61 35.28 23.27Q36.57 22.93 37.99 22.79L37.99 22.79Q39.65 22.62 40.66 22.47Q41.68 22.33 42.15 22.01Q42.62 21.70 42.62 21.08L42.62 21.08L42.62 20.99Q42.62 20.17 42.28 19.61Q41.94 19.05 41.27 18.75Q40.60 18.45 39.63 18.45L39.63 18.45Q38.64 18.45 37.90 18.75Q37.17 19.05 36.71 19.54Q36.25 20.04 36.02 20.65L36.02 20.65L31.33 19.87Q31.82 18.21 32.97 17.05Q34.11 15.88 35.81 15.27Q37.51 14.65 39.63 14.65L39.63 14.65Q41.19 14.65 42.64 15.02Q44.09 15.39 45.24 16.16Q46.40 16.93 47.07 18.16Q47.75 19.39 47.75 21.13L47.75 21.13L47.75 34L42.89 34L42.89 31.35L42.72 31.35Q42.26 32.24 41.49 32.91Q40.72 33.59 39.64 33.98Q38.55 34.38 37.14 34.38ZM38.59 30.77L38.59 30.77Q39.80 30.77 40.72 30.29Q41.63 29.81 42.14 28.99Q42.66 28.17 42.66 27.16L42.66 27.16L42.66 25.10Q42.43 25.27 41.97 25.40Q41.51 25.54 40.95 25.64Q40.38 25.75 39.84 25.83Q39.29 25.92 38.86 25.97L38.86 25.97Q37.92 26.10 37.20 26.41Q36.49 26.72 36.09 27.22Q35.70 27.73 35.70 28.51L35.70 28.51Q35.70 29.25 36.08 29.75Q36.45 30.26 37.09 30.51Q37.73 30.77 38.59 30.77ZM54.98 34L49.85 34L49.85 14.89L54.60 14.89L54.86 19.64L54.48 19.64Q54.92 17.88 55.79 16.77Q56.65 15.66 57.81 15.13Q58.97 14.60 60.26 14.60L60.26 14.60Q62.32 14.60 63.59 15.91Q64.85 17.22 65.45 19.95L65.45 19.95L64.85 19.95Q65.28 18.12 66.25 16.94Q67.21 15.75 68.54 15.18Q69.86 14.60 71.31 14.60L71.31 14.60Q73.07 14.60 74.45 15.37Q75.83 16.14 76.62 17.59Q77.41 19.03 77.41 21.11L77.41 21.11L77.41 34L72.29 34L72.29 22.09Q72.29 20.46 71.41 19.68Q70.53 18.89 69.25 18.89L69.25 18.89Q68.29 18.89 67.58 19.31Q66.87 19.73 66.49 20.48Q66.10 21.23 66.10 22.24L66.10 22.24L66.10 34L61.14 34L61.14 21.95Q61.14 20.55 60.32 19.72Q59.49 18.89 58.17 18.89L58.17 18.89Q57.27 18.89 56.54 19.30Q55.81 19.71 55.39 20.51Q54.98 21.30 54.98 22.45L54.98 22.45L54.98 34ZM84.64 41.14L79.51 41.14L79.51 14.89L84.56 14.89L84.56 18.11L84.80 18.11Q85.15 17.35 85.81 16.55Q86.47 15.75 87.55 15.20Q88.62 14.65 90.25 14.65L90.25 14.65Q92.37 14.65 94.13 15.75Q95.89 16.84 96.94 19.03Q97.99 21.22 97.99 24.48L97.99 24.48Q97.99 27.66 96.96 29.86Q95.94 32.05 94.18 33.19Q92.42 34.32 90.21 34.32L90.21 34.32Q88.66 34.32 87.58 33.79Q86.50 33.27 85.83 32.49Q85.15 31.71 84.80 30.94L84.80 30.94L84.64 30.94L84.64 41.14ZM88.64 30.21L88.64 30.21Q89.97 30.21 90.89 29.47Q91.80 28.74 92.27 27.44Q92.74 26.14 92.74 24.46L92.74 24.46Q92.74 22.79 92.27 21.51Q91.80 20.23 90.90 19.49Q89.99 18.76 88.64 18.76L88.64 18.76Q87.32 18.76 86.40 19.47Q85.48 20.17 85.00 21.45Q84.52 22.72 84.52 24.46L84.52 24.46Q84.52 26.19 85.01 27.48Q85.50 28.77 86.42 29.49Q87.34 30.21 88.64 30.21ZM105.88 34.24L105.88 34.24Q103.90 34.24 102.41 33.38Q100.93 32.51 100.11 30.90Q99.30 29.28 99.30 27.04L99.30 27.04L99.30 14.89L104.43 14.89L104.43 26.16Q104.43 27.93 105.35 28.94Q106.27 29.95 107.88 29.95L107.88 29.95Q108.98 29.95 109.81 29.48Q110.65 29.01 111.12 28.11Q111.59 27.22 111.59 25.95L111.59 25.95L111.59 14.89L116.72 14.89L116.72 34L111.88 34L111.81 29.23L112.10 29.23Q111.35 31.64 109.80 32.94Q108.26 34.24 105.88 34.24ZM126.40 34.38L126.40 34.38Q124.10 34.38 122.32 33.72Q120.54 33.06 119.42 31.80Q118.29 30.55 117.96 28.77L117.96 28.77L122.73 27.95Q123.11 29.28 124.05 29.95Q124.99 30.62 126.56 30.62L126.56 30.62Q128.01 30.62 128.87 30.06Q129.72 29.51 129.72 28.65L129.72 28.65Q129.72 27.90 129.11 27.42Q128.51 26.94 127.26 26.69L127.26 26.69L123.96 26.00Q121.19 25.44 119.83 24.08Q118.46 22.72 118.46 20.58L118.46 20.58Q118.46 18.74 119.47 17.41Q120.47 16.09 122.27 15.37Q124.06 14.65 126.49 14.65L126.49 14.65Q128.75 14.65 130.40 15.28Q132.06 15.90 133.09 17.05Q134.11 18.19 134.45 19.75L134.45 19.75L129.91 20.55Q129.62 19.58 128.79 18.95Q127.96 18.33 126.56 18.33L126.56 18.33Q125.29 18.33 124.44 18.86Q123.58 19.39 123.58 20.26L123.58 20.26Q123.58 20.99 124.14 21.49Q124.70 21.99 126.05 22.26L126.05 22.26L129.48 22.94Q132.25 23.51 133.60 24.78Q134.95 26.05 134.95 28.10L134.95 28.10Q134.95 29.98 133.86 31.39Q132.76 32.80 130.84 33.59Q128.92 34.38 126.40 34.38ZM152.46 34L136.26 34L136.26 8.54L141.48 8.54L141.48 29.68L152.46 29.68L152.46 34ZM158.79 34L153.66 34L153.66 14.89L158.79 14.89L158.79 34ZM156.22 12.40L156.22 12.40Q155.06 12.40 154.24 11.63Q153.42 10.86 153.42 9.77L153.42 9.77Q153.42 8.67 154.24 7.90Q155.06 7.13 156.22 7.13L156.22 7.13Q157.38 7.13 158.21 7.90Q159.04 8.66 159.04 9.77L159.04 9.77Q159.04 10.86 158.21 11.63Q157.38 12.40 156.22 12.40ZM166.00 22.94L166.00 22.94L166.00 34L160.87 34L160.87 14.89L165.71 14.89L165.79 19.66L165.48 19.66Q166.24 17.27 167.76 15.96Q169.29 14.65 171.72 14.65L171.72 14.65Q173.70 14.65 175.17 15.52Q176.64 16.38 177.46 18.00Q178.28 19.61 178.28 21.85L178.28 21.85L178.28 34L173.16 34L173.16 22.74Q173.16 20.96 172.24 19.95Q171.33 18.94 169.70 18.94L169.70 18.94Q168.63 18.94 167.78 19.41Q166.94 19.88 166.47 20.77Q166.00 21.66 166.00 22.94ZM188.52 24.48L185.03 28.41L185.03 22.24L185.80 22.24L192.06 14.89L197.99 14.89L189.73 24.48L188.52 24.48ZM185.51 34L180.38 34L180.38 8.54L185.51 8.54L185.51 34ZM198.34 34L192.31 34L186.57 25.63L190.00 21.99L198.34 34Z"></path></g>
        
      </svg>